<?xml version="1.0" encoding="UTF-8" standalone="no"?>
<!-- Created with Inkscape (http://www.inkscape.org/) -->

<svg
   version="1.1"
   id="svg1"
   width="2560"
   height="2560"
   viewBox="0 0 2560 2560"
   xmlns="http://www.w3.org/2000/svg"
   xmlns:svg="http://www.w3.org/2000/svg">
  <defs
     id="defs1" />
  <g
     id="g1">
    <path
       style="fill:#1e6864;fill-opacity:1"
       d="m 125.10699,1683.44 c -5.35626,-3.1865 -7.57232,-4.8966 -11.68294,-9.0159 -3.82735,-3.8354 -7.05381,-8.1864 -9.7687,-13.1733 l -1.06114,-1.9491 0.54094,-1.4109 c 0.29751,-0.7759 1.25411,-2.608 2.12577,-4.0712 5.15062,-8.6459 11.58235,-15.0791 20.11186,-20.1164 l 2.97278,-1.7556 502.78722,-25.2467 c 361.27451,-18.1408 503.55282,-25.3883 505.50722,-25.7499 7.0248,-1.2997 13.5225,-6.7575 17.7589,-14.917 1.678,-3.2319 3.7625,-9.2242 3.7687,-10.834 0,-0.9004 -45.8873,-83.4529 -234.01061,-420.96 C 795.44878,903.328 689.74281,713.464 689.25484,712.32 c -2.12116,-4.97287 -2.42573,-10.9524 -0.80395,-15.7836 2.7399,-8.16202 10.24058,-18.22982 15.70911,-21.08557 0.704,-0.36764 2,-0.86077 2.88,-1.09584 2.13541,-0.57042 8.13655,-0.54423 10.64175,0.0464 6.88177,1.62256 14.56621,6.31088 21.2553,12.968 2.44354,2.43186 3.86581,4.25845 6.74029,8.65641 2.00379,3.06579 117.97012,182.47613 257.70296,398.6897 200.6384,310.4548 254.4954,393.578 256.1316,395.3151 4.9127,5.2156 11.4921,8.3518 17.4481,8.3168 7.4456,-0.044 15.8412,-4.9407 20.4646,-11.9366 0.76,-1.1499 112.7296,-182.3788 248.8214,-402.7308 136.0918,-220.35203 247.9602,-401.43203 248.5963,-402.40003 2.3895,-3.63624 8.0916,-8.98824 13.285,-12.46929 3.1408,-2.10526 8.9534,-4.90778 11.7127,-5.64723 1.3949,-0.37381 3.3448,-0.565 5.92,-0.58045 4.4761,-0.0268 5.8944,0.37864 9.008,2.57522 5.5696,3.92931 12.4571,14.23026 14.2468,21.30741 0.9108,3.60173 0.7092,8.97482 -0.461,12.28599 -0.4415,1.24941 -98.6122,194.26729 -218.1569,428.92868 l -217.3542,426.657 0.9013,3.0522 c 1.1152,3.7763 4.0612,9.7601 6.1741,12.5406 2.3108,3.0411 6.6514,7.0779 9.0572,8.4232 1.1492,0.6427 3.2217,1.4581 4.6056,1.812 2.2907,0.5859 47.1098,2.6503 500.1048,23.0355 l 497.5887,22.392 2.68,1.5236 c 8.796,5.0005 17.3521,13.8784 21.7042,22.5205 1.0026,1.9909 1.1014,2.4363 1.1014,4.9644 0,2.5979 -0.075,2.9134 -1.1695,4.8879 -3.0626,5.5278 -7.4905,11.1062 -11.7471,14.7994 -3,2.6029 -8.8366,6.5665 -11.4034,7.744 l -1.76,0.8073 -1126.56,1.3128 c -619.608,0.7221 -1137.6505,1.3071 -1151.20557,1.3001 l -24.64556,-0.013 z"
       id="path1" />
  </g>
</svg>
